<svg width="153" height="47" viewBox="0 0 153 47" fill="none" xmlns="http://www.w3.org/2000/svg">
<g filter="url(#filter0_d_2_263)">
<mask id="path-1-inside-1_2_263" fill="white">
<path d="M9.84373 19.935C9.45321 19.5445 9.45321 18.9113 9.84373 18.5208L11.7315 16.6331C14.0746 14.2899 17.8736 14.2899 20.2167 16.6331L22.1045 18.5208C22.495 18.9113 22.495 19.5445 22.1045 19.935L20.2167 21.8227C17.8736 24.1659 14.0746 24.1659 11.7315 21.8227L9.84373 19.935Z"/>
</mask>
<path d="M9.84373 19.935C9.45321 19.5445 9.45321 18.9113 9.84373 18.5208L11.7315 16.6331C14.0746 14.2899 17.8736 14.2899 20.2167 16.6331L22.1045 18.5208C22.495 18.9113 22.495 19.5445 22.1045 19.935L20.2167 21.8227C17.8736 24.1659 14.0746 24.1659 11.7315 21.8227L9.84373 19.935Z" stroke="#3A3845" stroke-width="5" mask="url(#path-1-inside-1_2_263)"/>
<mask id="path-2-inside-2_2_263" fill="white">
<path d="M25.9319 19.935C25.5414 19.5445 25.5414 18.9113 25.9319 18.5208L27.8196 16.6331C30.1628 14.2899 33.9618 14.2899 36.3049 16.6331L38.1926 18.5208C38.5832 18.9113 38.5832 19.5445 38.1926 19.935L36.3049 21.8227C33.9618 24.1659 30.1628 24.1659 27.8196 21.8227L25.9319 19.935Z"/>
</mask>
<path d="M25.9319 19.935C25.5414 19.5445 25.5414 18.9113 25.9319 18.5208L27.8196 16.6331C30.1628 14.2899 33.9618 14.2899 36.3049 16.6331L38.1926 18.5208C38.5832 18.9113 38.5832 19.5445 38.1926 19.935L36.3049 21.8227C33.9618 24.1659 30.1628 24.1659 27.8196 21.8227L25.9319 19.935Z" stroke="#3A3845" stroke-width="5" mask="url(#path-2-inside-2_2_263)"/>
<mask id="path-3-inside-3_2_263" fill="white">
<path d="M23.3111 5.05348C23.7016 4.66295 24.3348 4.66295 24.7253 5.05348L26.613 6.9412C28.9562 9.28435 28.9562 13.0833 26.613 15.4265L24.7253 17.3142C24.3348 17.7047 23.7016 17.7047 23.3111 17.3142L21.4234 15.4265C19.0802 13.0833 19.0802 9.28435 21.4234 6.9412L23.3111 5.05348Z"/>
</mask>
<path d="M23.3111 5.05348C23.7016 4.66295 24.3348 4.66295 24.7253 5.05348L26.613 6.9412C28.9562 9.28435 28.9562 13.0833 26.613 15.4265L24.7253 17.3142C24.3348 17.7047 23.7016 17.7047 23.3111 17.3142L21.4234 15.4265C19.0802 13.0833 19.0802 9.28435 21.4234 6.9412L23.3111 5.05348Z" stroke="#3A3845" stroke-width="5" mask="url(#path-3-inside-3_2_263)"/>
<mask id="path-4-inside-4_2_263" fill="white">
<path d="M23.2054 20.3424C23.5959 19.9519 24.2291 19.9519 24.6196 20.3424L26.5073 22.2301C28.8505 24.5733 28.8505 28.3723 26.5073 30.7154L24.6196 32.6031C24.2291 32.9937 23.5959 32.9937 23.2054 32.6031L21.3177 30.7154C18.9745 28.3723 18.9745 24.5733 21.3177 22.2301L23.2054 20.3424Z"/>
</mask>
<path d="M23.2054 20.3424C23.5959 19.9519 24.2291 19.9519 24.6196 20.3424L26.5073 22.2301C28.8505 24.5733 28.8505 28.3723 26.5073 30.7154L24.6196 32.6031C24.2291 32.9937 23.5959 32.9937 23.2054 32.6031L21.3177 30.7154C18.9745 28.3723 18.9745 24.5733 21.3177 22.2301L23.2054 20.3424Z" stroke="#3A3845" stroke-width="5" mask="url(#path-4-inside-4_2_263)"/>
<path d="M27.75 1.29785C28.8356 1.20772 29.7219 1.22655 30.5273 1.5127C31.0049 1.68235 31.3852 2.07688 31.9238 2.81738C32.3914 3.46029 33.0508 4.49559 34.0088 5.1709C35.051 5.90557 36.4546 6.40502 37.4277 6.81836C38.5624 7.30034 39.1618 7.67761 39.4062 8.08594C39.7581 8.67359 39.9434 9.41777 40.1162 10.4258C40.2784 11.3714 40.4328 12.5849 40.79 13.7647C41.1129 14.8308 41.7983 15.9554 42.2471 16.8018C42.7538 17.7576 43.0526 18.4992 43.0527 19.1631C43.0527 19.7842 42.7878 20.3518 42.2959 21.1279C41.8568 21.8207 41.1304 22.8096 40.79 23.9336C40.419 25.1589 40.3515 26.5641 40.2344 27.5889C40.1051 28.7195 39.915 29.5369 39.4697 30.1465C39.0282 30.751 38.3051 31.1861 37.2715 31.6602C36.338 32.0882 35.0325 32.5879 34.0088 33.3096C33.0673 33.9733 32.4119 34.9495 31.9434 35.5605C31.4143 36.2506 31.0289 36.6363 30.5273 36.8145C29.7219 37.1006 28.8356 37.1194 27.75 37.0293C26.7494 36.9462 25.4061 36.7422 24.1514 36.7422C22.8967 36.7422 21.5533 36.9462 20.5527 37.0293C19.4671 37.1194 18.5809 37.1006 17.7754 36.8145C17.0442 36.5547 16.4454 36.0908 15.7764 35.4551C15.1596 34.869 14.365 34.004 13.4785 33.334C12.6119 32.6791 11.53 32.133 10.748 31.6777C9.89128 31.1789 9.2528 30.7212 8.83301 30.1465C8.3503 29.4857 8.08122 28.6086 7.85938 27.4883C7.65676 26.4651 7.4773 25.0906 7.12695 23.9336C6.80719 22.8776 6.226 21.9181 5.87012 21.2256C5.48359 20.4734 5.25 19.8619 5.25 19.1631C5.25014 18.4992 5.5489 17.7576 6.05566 16.8018C6.50441 15.9554 7.1898 14.8308 7.5127 13.7647C7.87951 12.5532 7.95041 11.3141 8.06543 10.4453C8.18834 9.51705 8.36649 8.81933 8.83301 8.18067C9.23894 7.62496 9.85618 7.20776 10.7129 6.7461C11.4931 6.32569 12.5898 5.81808 13.4785 5.14649C14.3844 4.46181 15.1798 3.5485 15.8008 2.92481C16.4777 2.24504 17.0676 1.76415 17.7754 1.5127C18.5809 1.22655 19.4671 1.20771 20.5527 1.29785C21.5533 1.38093 22.8967 1.58496 24.1514 1.58496C25.4061 1.58496 26.7494 1.38093 27.75 1.29785Z" stroke="#3A3845" stroke-width="2.5"/>
<path d="M76.2271 8.90351C76.3449 8.90351 76.458 8.95949 76.5417 9.05929C76.6254 9.15908 76.673 9.29461 76.6741 9.43638V28.7167C76.6741 28.8584 76.6275 28.9945 76.5446 29.0952C76.4616 29.1959 76.349 29.2531 76.2311 29.2544H74.0486C73.9308 29.2531 73.8181 29.1959 73.7352 29.0952C73.6522 28.9945 73.6057 28.8584 73.6057 28.7167V16.1748C73.4339 16.3427 73.2567 16.5042 73.0741 16.6592C72.5547 17.0952 72.0272 17.4634 71.5158 17.8219C71.0044 18.1803 70.6661 18.4613 70.2635 18.7471C69.5096 19.2709 68.8532 19.9755 68.3351 20.8172C67.8169 21.6588 67.4481 22.6196 67.2514 23.6399C67.2294 23.7586 67.1742 23.8647 67.0951 23.9405C67.016 24.0162 66.9177 24.0572 66.8165 24.0565H64.7347C64.6336 24.0572 64.5353 24.0162 64.4562 23.9405C64.3771 23.8647 64.3219 23.7586 64.2998 23.6399C64.1032 22.6183 63.734 21.6563 63.2151 20.8138C62.6962 19.9712 62.0388 19.2661 61.2838 18.7423C60.8811 18.4565 60.4784 18.1416 60.0315 17.817C59.5845 17.4924 58.9925 17.0904 58.4731 16.6544C58.2905 16.5026 58.1134 16.3411 57.9416 16.17V28.7167C57.9416 28.8584 57.895 28.9945 57.8121 29.0952C57.7291 29.1959 57.6165 29.2531 57.4986 29.2544H55.3201C55.2023 29.2531 55.0896 29.1959 55.0067 29.0952C54.9237 28.9945 54.8772 28.8584 54.8772 28.7167V9.44123C54.8772 9.29862 54.9243 9.16185 55.0081 9.061C55.0919 8.96016 55.2056 8.90351 55.3242 8.90351H57.4785C57.5834 8.90525 57.6845 8.95134 57.764 9.03371C57.8435 9.11608 57.8964 9.22947 57.9134 9.35403C58.0342 10.2938 58.4932 12.4883 60.1724 13.7139C60.6153 14.0288 61.0542 14.3824 61.5375 14.7264C62.0207 15.0703 62.4918 15.3852 62.9509 15.7727C63.8883 16.5225 64.7271 17.4369 65.4394 18.4855C65.4797 18.547 65.5311 18.5967 65.5897 18.6309C65.6483 18.665 65.7125 18.6828 65.7776 18.6828C65.8427 18.6828 65.907 18.665 65.9656 18.6309C66.0242 18.5967 66.0756 18.547 66.1159 18.4855C66.8267 17.4355 67.6641 16.5195 68.6004 15.7679C69.0796 15.3803 69.5789 15.0315 70.0178 14.7215C70.4567 14.4115 70.948 14.0288 71.3789 13.7139C73.0621 12.5077 73.5211 10.3229 73.6419 9.35403C73.6589 9.22947 73.7118 9.11608 73.7913 9.03371C73.8708 8.95134 73.9719 8.90525 74.0768 8.90351H76.2271Z" fill="#3A3845"/>
<path d="M99.4617 19.0789C99.4617 24.6851 95.0188 29.2543 89.554 29.2543C84.0893 29.2543 79.6464 24.6899 79.6464 19.0789C79.6464 13.4679 84.0893 8.90347 89.554 8.90347C95.0188 8.90347 99.4617 13.4679 99.4617 19.0789ZM89.554 12.6005C85.81 12.6005 82.765 15.5078 82.765 19.0789C82.765 22.65 85.81 25.533 89.554 25.533C93.298 25.533 96.3471 22.6258 96.3471 19.0595C96.3471 15.4933 93.298 12.6005 89.554 12.6005Z" fill="#3A3845"/>
<path d="M122.249 19.0789C122.249 24.6851 117.584 29.2543 111.846 29.2543C106.108 29.2543 101.443 24.6899 101.443 19.0789C101.443 13.4679 106.108 8.90347 111.846 8.90347C117.584 8.90347 122.249 13.4679 122.249 19.0789ZM111.846 12.6005C107.915 12.6005 104.714 15.5078 104.714 19.0789C104.714 22.65 107.915 25.533 111.846 25.533C115.777 25.533 118.975 22.6258 118.975 19.0595C118.975 15.4933 115.765 12.6005 111.846 12.6005Z" fill="#3A3845"/>
<path d="M139.979 18.9287V9.43646C139.979 9.36647 139.99 9.29716 140.013 9.23249C140.035 9.16783 140.068 9.10907 140.109 9.05958C140.15 9.01008 140.199 8.97082 140.253 8.94404C140.307 8.91725 140.365 8.90347 140.423 8.90347H142.611C142.67 8.90347 142.727 8.91725 142.781 8.94404C142.835 8.97082 142.884 9.01008 142.925 9.05958C142.967 9.10907 142.999 9.16783 143.022 9.23249C143.044 9.29716 143.055 9.36647 143.055 9.43646V28.7213C143.055 28.7913 143.044 28.8606 143.022 28.9253C142.999 28.99 142.967 29.0487 142.925 29.0982C142.884 29.1477 142.835 29.187 142.781 29.2138C142.727 29.2406 142.67 29.2543 142.611 29.2543H140.443C140.385 29.2543 140.327 29.2406 140.273 29.2138C140.219 29.187 140.17 29.1477 140.129 29.0982C140.088 29.0487 140.055 28.99 140.033 28.9253C140.01 28.8606 139.999 28.7913 139.999 28.7213V27.2047C140.001 26.73 139.913 26.2609 139.741 25.8335C139.099 24.2732 137.439 21.3853 133.563 19.6167C131.926 18.8906 130.392 17.864 129.017 16.5738C128.952 16.5101 128.873 16.4699 128.79 16.4581C128.707 16.4463 128.622 16.4633 128.547 16.5071C128.471 16.5508 128.408 16.6196 128.364 16.7053C128.32 16.7909 128.297 16.8899 128.298 16.9905V28.7213C128.298 28.8627 128.251 28.9983 128.168 29.0982C128.085 29.1982 127.972 29.2543 127.854 29.2543H125.666C125.548 29.2543 125.435 29.1982 125.352 29.0982C125.268 28.9983 125.222 28.8627 125.222 28.7213V9.43646C125.222 9.2951 125.268 9.15953 125.352 9.05958C125.435 8.95962 125.548 8.90347 125.666 8.90347H127.794C127.882 8.90557 127.968 8.93951 128.04 9.00087C128.112 9.06222 128.167 9.14815 128.197 9.24749C128.549 10.391 130.01 14.0929 134.633 16.1571C136.306 16.8913 137.862 17.9648 139.232 19.3309C139.296 19.3977 139.375 19.4409 139.459 19.4555C139.544 19.47 139.629 19.4552 139.707 19.4129C139.784 19.3705 139.85 19.3023 139.896 19.2165C139.942 19.1307 139.967 19.0308 139.967 18.9287H139.979Z" fill="#3A3845"/>
<path d="M146.028 27.2193C146.028 26.8166 146.115 26.4229 146.278 26.0882C146.442 25.7534 146.674 25.4925 146.946 25.3387C147.218 25.1848 147.517 25.1448 147.805 25.2237C148.094 25.3026 148.358 25.4969 148.566 25.7821C148.774 26.0672 148.915 26.4302 148.972 26.8253C149.029 27.2204 148.999 27.6298 148.886 28.0016C148.773 28.3733 148.582 28.6908 148.337 28.9138C148.092 29.1369 147.804 29.2554 147.51 29.2544C147.315 29.2544 147.122 29.2017 146.942 29.0994C146.762 28.9971 146.598 28.8471 146.461 28.658C146.323 28.469 146.214 28.2446 146.14 27.9977C146.065 27.7508 146.027 27.4863 146.028 27.2193Z" fill="#3A3845"/>
</g>
<defs>
<filter id="filter0_d_2_263" x="0" y="0" width="153" height="46.3271" filterUnits="userSpaceOnUse" color-interpolation-filters="sRGB">
<feFlood flood-opacity="0" result="BackgroundImageFix"/>
<feColorMatrix in="SourceAlpha" type="matrix" values="0 0 0 0 0 0 0 0 0 0 0 0 0 0 0 0 0 0 127 0" result="hardAlpha"/>
<feOffset dy="4"/>
<feGaussianBlur stdDeviation="2"/>
<feComposite in2="hardAlpha" operator="out"/>
<feColorMatrix type="matrix" values="0 0 0 0 0 0 0 0 0 0 0 0 0 0 0 0 0 0 0.25 0"/>
<feBlend mode="normal" in2="BackgroundImageFix" result="effect1_dropShadow_2_263"/>
<feBlend mode="normal" in="SourceGraphic" in2="effect1_dropShadow_2_263" result="shape"/>
</filter>
</defs>
</svg>
